<svg xmlns="http://www.w3.org/2000/svg" width="120.887" height="115.85" viewBox="0 0 120.887 115.85">
  <g id="paper-plane" transform="translate(0 0)">
    <path id="パス_16822" data-name="パス 16822" d="M8.75,17.612V40.973a3.776,3.776,0,0,0,6.82,2.236l13.665-18.6Z" transform="translate(35.323 71.099)" fill="#7084ff"/>
    <path id="パス_16823" data-name="パス 16823" d="M119.3.7a3.779,3.779,0,0,0-3.939-.272L2.03,59.612a3.779,3.779,0,0,0,.524,6.926L34.06,77.307l67.1-57.371L49.236,82.49l52.8,18.047a3.865,3.865,0,0,0,1.219.2,3.775,3.775,0,0,0,3.737-3.219L120.846,4.337A3.784,3.784,0,0,0,119.3.7Z" transform="translate(0 0)" fill="#7084ff"/>
  </g>
</svg>
