<svg xmlns="http://www.w3.org/2000/svg" width="24" height="24" viewBox="0 0 24 24">
  <g id="グループ_6874" data-name="グループ 6874" transform="translate(-18 -427.027)">
    <circle id="楕円形_701" data-name="楕円形 701" cx="12" cy="12" r="12" transform="translate(18 427.027)" fill="#56b8c4"/>
    <g id="アンケートアイコン" transform="translate(24.266 429.947)">
      <path id="パス_17416" data-name="パス 17416" d="M18514.215,12804.736h-8.756a1.459,1.459,0,0,1-1.455-1.457V12791.6a1.459,1.459,0,0,1,1.455-1.455h1.232a1.487,1.487,0,0,0-.012.188v.738a1.345,1.345,0,0,0,1.146,1.479h4.014a1.344,1.344,0,0,0,1.145-1.479v-.738c0-.062,0-.127-.008-.187h1.238a1.462,1.462,0,0,1,1.463,1.455v11.676A1.462,1.462,0,0,1,18514.215,12804.736Z" transform="translate(-18504.004 -12788.531)" fill="#fff"/>
      <path id="パス_17414" data-name="パス 17414" d="M18506.047,12999.445l-.051.041-.279-.369-1.713-1.715.723-.727,1.418,1.418,2.793-2.1.613.822-3.115,2.338-.342.338Z" transform="translate(-18502.115 -12991.118)" fill="#56b8c4"/>
      <path id="パス_17415" data-name="パス 17415" d="M18506.047,12999.445l-.051.041-.281-.375-1.711-1.713.723-.723,1.418,1.416,2.793-2.094.613.822-3.129,2.346-.328.33Z" transform="translate(-18502.115 -12986.558)" fill="#56b8c4"/>
      <path id="パス_17412" data-name="パス 17412" d="M18507.9,12999.223h-3.031a.869.869,0,0,1-.867-.867v-.436a.867.867,0,0,1,.867-.865h.451a1.056,1.056,0,1,1,2.111,0h.469a.869.869,0,0,1,.867.865v.436A.87.87,0,0,1,18507.9,12999.223Zm-1.523-2.6a.433.433,0,1,0,.434.43A.433.433,0,0,0,18506.375,12996.625Z" transform="translate(-18500.549 -12995.998)" fill="#fff"/>
    </g>
  </g>
</svg>
